<?xml version="1.0" encoding="UTF-8" standalone="no"?>
<svg
   xmlns:dc="http://purl.org/dc/elements/1.1/"
   xmlns:cc="http://creativecommons.org/ns#"
   xmlns:rdf="http://www.w3.org/1999/02/22-rdf-syntax-ns#"
   xmlns:svg="http://www.w3.org/2000/svg"
   xmlns="http://www.w3.org/2000/svg"
   xmlns:sodipodi="http://sodipodi.sourceforge.net/DTD/sodipodi-0.dtd"
   xmlns:inkscape="http://www.inkscape.org/namespaces/inkscape"
   inkscape:version="1.0 (4035a4fb49, 2020-05-01)"
   sodipodi:docname="wz2.svg"
   id="svg18"
   preserveAspectRatio="xMidYMid meet"
   viewBox="0 0 626.000000 59.000000"
   height="59.000000pt"
   width="626.000000pt"
   version="1.0">
  <metadata
     id="metadata24">
    <rdf:RDF>
      <cc:Work
         rdf:about="">
        <dc:format>image/svg+xml</dc:format>
        <dc:type
           rdf:resource="http://purl.org/dc/dcmitype/StillImage" />
        <dc:title></dc:title>
      </cc:Work>
    </rdf:RDF>
  </metadata>
  <defs
     id="defs22" />
  <sodipodi:namedview
     inkscape:current-layer="svg18"
     inkscape:window-maximized="0"
     inkscape:window-y="23"
     inkscape:window-x="26"
     inkscape:cy="39.333333"
     inkscape:cx="417.33333"
     inkscape:zoom="1.5790735"
     showgrid="false"
     id="namedview20"
     inkscape:window-height="480"
     inkscape:window-width="836"
     inkscape:pageshadow="2"
     inkscape:pageopacity="0"
     guidetolerance="10"
     gridtolerance="10"
     objecttolerance="10"
     borderopacity="1"
     bordercolor="#666666"
     pagecolor="#ffffff" />
  <g
     style="fill:#ffffff"
     id="g16"
     stroke="none"
     fill="#000000"
     transform="translate(0.000000,59.000000) scale(0.100000,-0.100000)">
    <path
       style="fill:#ffffff"
       id="path2"
       d="M3870 579 c-105 -21 -129 -74 -130 -294 0 -137 2 -155 23 -195 15 -30 35 -50 62 -64 37 -20 57 -21 300 -21 244 0 263 1 306 21 59 28 78 67 92 195 8 75 8 120 -1 182 -17 116 -53 159 -151 177 -65 12 -438 11 -501 -1z m422 -139 c46 -13 58 -44 58 -151 0 -142 -18 -152 -246 -147 -134 3 -145 5 -166 26 -21 21 -23 32 -23 126 0 112 11 140 59 149 45 9 283 6 318 -3z" />
    <path
       style="fill:#ffffff"
       id="path4"
       d="M0 290 l0 -290 118 0 117 1 125 149 c69 82 127 149 130 149 3 1 60 -66 125 -148 l120 -150 123 0 122 -1 0 290 0 290 -80 0 -80 0 -2 -196 -3 -195 -148 180 c-82 99 -154 185 -162 191 -11 9 -44 -26 -172 -180 l-158 -191 -3 196 -2 195 -85 0 -85 0 0 -290z" />
    <path
       style="fill:#ffffff"
       id="path6"
       d="M1275 333 c-76 -136 -149 -267 -162 -291 l-25 -42 99 0 99 0 27 55 27 55 188 0 188 0 27 -55 27 -55 96 0 c73 0 95 3 91 12 -3 7 -73 137 -155 288 l-150 275 -120 3 -120 3 -137 -248z m324 -5 l52 -98 -120 0 c-67 0 -121 2 -121 5 0 4 26 53 57 110 44 80 60 102 69 92 6 -6 35 -56 63 -109z" />
    <path
       style="fill:#ffffff"
       id="path8"
       d="M2070 291 l0 -291 90 0 90 0 0 75 0 75 161 0 c91 0 169 -4 180 -10 16 -9 19 -22 19 -75 l0 -65 90 0 90 0 0 76 c0 90 -9 110 -60 133 l-39 17 38 17 c53 24 66 54 66 157 0 97 -13 127 -68 157 -28 16 -68 18 -344 21 l-313 3 0 -290z m524 139 c23 -8 26 -15 26 -59 0 -79 -4 -81 -201 -81 l-169 0 0 75 0 75 159 0 c88 0 171 -4 185 -10z" />
    <path
       style="fill:#ffffff"
       id="path10"
       d="M2930 515 l0 -65 211 -2 210 -3 -215 -155 -215 -155 -1 -67 0 -68 350 0 350 0 0 65 0 65 -221 2 -221 3 216 155 216 155 0 67 0 68 -340 0 -340 0 0 -65z" />
    <path
       style="fill:#ffffff"
       id="path12"
       d="M4670 290 l0 -290 80 0 80 0 2 216 3 215 173 -215 172 -216 140 0 140 0 0 290 0 290 -85 0 -85 0 -2 -212 -3 -212 -169 212 -170 212 -138 0 -138 0 0 -290z" />
    <path
       style="fill:#ffffff"
       id="path14"
       d="M5610 290 l0 -290 320 0 320 0 0 65 0 65 -230 0 -230 0 0 55 0 55 193 0 192 0 20 47 c11 26 22 51 23 55 2 4 -93 8 -212 8 l-216 0 0 50 0 50 230 0 230 0 0 65 0 65 -320 0 -320 0 0 -290z" />
  </g>
</svg>
