<svg xmlns="http://www.w3.org/2000/svg" version="1.0" viewBox="0 0 626 59">
  <defs/>
  <g fill="#fff">
    <path d="M387 1c-10 2-13 7-13 29 0 14 0 16 2 20 2 3 4 5 7 6 3 2 5 2 30 2 24 1 26 0 30-2 6-2 8-6 9-19V19c-2-12-5-16-15-18h-50zm42 14c5 1 6 4 6 15 0 14-2 15-25 15-13-1-14-1-16-3s-3-3-3-12c0-12 2-14 6-15h32zM0 30v29h24l12-15 13-15 13 15 12 15h24V1H82v20l-1 19-14-18L51 3c-2-1-5 3-18 18L17 40V1H0v29zM128 26l-17 29-2 4h20l2-5 3-6h38l2 6 3 5h10l9-1-16-29-15-28h-24l-14 25zm32 0l5 10h-24l6-11c4-8 6-11 7-10l6 11zM207 30v29h18V44h16l18 1c2 1 2 2 2 8v6h18v-8c0-9-1-11-6-13l-4-2 4-1c5-3 7-6 7-16s-2-13-7-16c-3-1-7-2-35-2h-31v29zm52-14c3 1 3 1 3 6 0 8 0 8-20 8h-17V15h16l18 1zM293 8v6h42l-21 16-22 16v13h70V46h-22l-22-1 21-15 22-15V1h-68v6zM467 30v29h16V16l18 21 17 22h28V1h-17v21l-1 21-16-21-17-21h-28v29zM561 30v29h64V46h-46V35h38l3-5 2-5-21-1h-22V14h46V1h-64v29z"/>
  </g>
</svg>
